PathFileType	4	(X/Y/Z)	/Users/visionmauri/Downloads/Videos/OAW07-top_Sports2D/OAW07-top_Sports2D_m_person00.trc
DataRate	CameraRate	NumFrames	NumMarkers	Units	OrigDataRate	OrigDataStartFrame	OrigNumFrames
30.0	30.0	10	22	m	30.0	1788	2861
Frame#	Time	Hip			RHip			RKnee			RAnkle			RBigToe			RSmallToe			RHeel			LHip			LKnee			LAnkle			LBigToe			LSmallToe			LHeel			Neck			Head			Nose			RShoulder			RElbow			RWrist			LShoulder			LElbow			LWrist			
		X1	Y1	Z1	X2	Y2	Z2	X3	Y3	Z3	X4	Y4	Z4	X5	Y5	Z5	X6	Y6	Z6	X7	Y7	Z7	X8	Y8	Z8	X9	Y9	Z9	X10	Y10	Z10	X11	Y11	Z11	X12	Y12	Z12	X13	Y13	Z13	X14	Y14	Z14	X15	Y15	Z15	X16	Y16	Z16	X17	Y17	Z17	X18	Y18	Z18	X19	Y19	Z19	X20	Y20	Z20	X21	Y21	Z21	X22	Y22	Z22
1952	65.08818342151675	2.1354697879134106	0.2648392904428356	0.0301	2.1992940311974767	0.334021649577895	0.0301	2.4603997933465176	0.08674276100126349	0.129	2.7561822453368756	-0.13296857495384715	0.023	2.8081214322066024	-0.21478826413207666	0.2179	2.865824646181582	-0.1591447813206662	0.1804	2.8116303598000347	-0.1875787776198959	-0.0119	2.080205239568365	0.1928601817909496	0.0301	2.395564227951333	-0.04878276177350182	0.129	2.7107363426950877	-0.27923527500607076	0.023	2.767809408457261	-0.29633740386809887	0.2179	2.7444735642837728	-0.35309060681555665	0.1804	2.780312666129435	-0.32695933475372313	-0.0119	1.7606424183474714	0.586385536483704	0.0008	1.63812067487791	0.6772981246703159	0.0655	1.6993531242224034	0.5597836180789474	0.1076	1.9070526702161366	0.7064737735599504	-0.01275	2.183233426986354	0.5654502957075935	0.0702	2.3212415549816163	0.4165095841245886	0.1076	1.6550135457225603	0.43308226927885785	-0.01275	1.8435852626853066	0.19143900855940207	0.0702	2.0020611167067375	0.039632597848467545	0.1076
1953	65.12152777777777	2.1302543822661035	0.26665560519063863	0.0301	2.194296150861446	0.3354453973139822	0.0301	2.450459244817272	0.09367272797877084	0.129	2.7399569318501333	-0.1259594574842539	0.023	2.7774140345921126	-0.19585429202750343	0.2179	2.8349686738030377	-0.14413730903141156	0.1804	2.795635165550185	-0.17977162293784388	-0.0119	2.0760362065404077	0.19463337301454897	0.0301	2.395027969821808	-0.04874710808269472	0.129	2.7118723686862936	-0.28026718210349216	0.023	2.7674942920837395	-0.2935976889193247	0.2179	2.7442550014667324	-0.35069720141809235	0.1804	2.780460555836854	-0.3262843725247548	-0.0119	1.755244658093644	0.5876961082871389	0.0008	1.6376967579774195	0.677585390872801	0.0655	1.7049285008766233	0.5655838676953174	0.1076	1.9041387249788873	0.7063236726290147	-0.01275	2.1753484191949903	0.5644424720003252	0.0702	2.320523450758099	0.41453638041986457	0.1076	1.6516954890619637	0.4331883119827079	-0.01275	1.8364699373040667	0.1920200905690323	0.0702	1.9906673736108744	0.04934784007524591	0.1076
1954	65.1548721340388	2.1258610636866746	0.26702109333848995	0.0301	2.1901828566281774	0.3346615543896354	0.0301	2.4405412594343687	0.1003060848876717	0.129	2.719314327937096	-0.11823812872179634	0.023	2.7320943431131965	-0.16237595489482082	0.2179	2.7863316708261143	-0.1190088030718638	0.1804	2.7743198826435997	-0.17073031887850562	-0.0119	2.07131701518395	0.19453475498293207	0.0301	2.3959223365972924	-0.05022366894544274	0.129	2.714559065304918	-0.28276623070671036	0.023	2.7638592997850586	-0.29052012612385386	0.2179	2.742291391995264	-0.34864956304833145	0.1804	2.7814817908885647	-0.32516318659971355	-0.0119	1.7478291140033384	0.5898477745599849	0.0008	1.6365949837100904	0.6766956201878931	0.0655	1.7094168176387512	0.5746572803441485	0.1076	1.9011871491584376	0.7049641410978881	-0.01275	2.1672993902366495	0.5646342680607082	0.0702	2.319411156574933	0.4114833203376578	0.1076	1.6502217329437332	0.43286737317380736	-0.01275	1.8304960252616636	0.1933558410903974	0.0702	1.9773121601985038	0.060987578795988484	0.1076
1955	65.18821649029982	2.120831531972533	0.2675842155846896	0.0301	2.1868549391217535	0.33253364222021825	0.0301	2.430311206392779	0.10567647765222983	0.129	2.6957379901566214	-0.10948069163206035	0.023	2.683927604951674	-0.12890148013612532	0.2179	2.734513600915014	-0.09306637836821706	0.1804	2.7458416634052134	-0.15859772867845778	-0.0119	2.0659242260890385	0.19271500455787058	0.0301	2.396207870384945	-0.051385629181024677	0.129	2.7185715046937915	-0.2855549882275356	0.023	2.7605397800300002	-0.2905127710156756	0.2179	2.7418603155554098	-0.34897725652705747	0.1804	2.7838782005663383	-0.3236613335053242	-0.0119	1.7426941016989876	0.5908338578831281	0.0008	1.6301656008843046	0.6785123435195827	0.0655	1.707848782170543	0.58431798690408	0.1076	1.8974797733133888	0.7030769577582445	-0.01275	2.159945165366715	0.5651059321432387	0.0702	2.3169328829481723	0.40880225894724387	0.1076	1.6498898822465657	0.4318659513238967	-0.01275	1.824937223717845	0.1950177177738288	0.0702	1.964726381555129	0.07381048336930064	0.1076
1956	65.22156084656083	2.1162290423951786	0.2689455670469266	0.0301	2.18404852186911	0.3304015038177598	0.0301	2.4203866838050434	0.10809688166499942	0.129	2.668136317121825	-0.09932686277538398	0.023	2.6486438019443166	-0.10882889771142193	0.2179	2.6959187255713206	-0.07728801281741003	0.1804	2.707966076294616	-0.14376350469984475	-0.0119	2.0618780652110473	0.19047809372241484	0.0301	2.3960085310074706	-0.05178372915147564	0.129	2.721713416996511	-0.28636964758408956	0.023	2.759953884349036	-0.2926787872894382	0.2179	2.744189769427247	-0.3518908298019361	0.1804	2.78683665119273	-0.32146240496832057	-0.0119	1.740672337843713	0.5920867666844242	0.0008	1.6196332535098337	0.6853770131672687	0.0655	1.7018707966823288	0.5930560169082629	0.1076	1.8955307685871206	0.7025630831383659	-0.01275	2.1554266080266324	0.5653056185984735	0.0702	2.313753751983719	0.4071026433989667	0.1076	1.650659030157605	0.4312183391201637	-0.01275	1.8215960345971929	0.1968813840338938	0.0702	1.9556719978543742	0.08578243099373364	0.1076
1957	65.25490520282186	2.113506369743776	0.2706159142725691	0.0301	2.181551998904445	0.33028948152802473	0.0301	2.409671774048129	0.10850756642827629	0.129	2.6375215855649103	-0.09014789819477462	0.023	2.6292597864997402	-0.10396588814931779	0.2179	2.675117082308636	-0.07572050437326007	0.1804	2.665729200040992	-0.13036987819881204	-0.0119	2.060524015198434	0.1895338661355633	0.0301	2.3953835134554162	-0.05089449906098448	0.129	2.722784833106192	-0.2856547523844488	0.023	2.761113286674795	-0.29451863705897946	0.2179	2.747709732960181	-0.3548463925016532	0.1804	2.788920840144537	-0.31952661734641336	-0.0119	1.7394454441733747	0.5942780405791819	0.0008	1.6128785937817132	0.6935664423121456	0.0655	1.69600501075386	0.5999609249592429	0.1076	1.895303900260444	0.7033316927591364	-0.01275	2.1529705241550916	0.5667256537871191	0.0702	2.309954054320472	0.4066845830865798	0.1076	1.652461948547017	0.43189704684717944	-0.01275	1.8215447721897386	0.199607844644792	0.0702	1.9499790756525675	0.09569487668633612	0.1076
1958	65.28824955908289	2.111483261393598	0.27216698657602884	0.0301	2.1785984038732567	0.3325184933471337	0.0301	2.3968632615302203	0.10861209159069725	0.129	2.609427663196012	-0.08645654081546748	0.023	2.616467242930732	-0.10953253331994903	0.2179	2.663978739517824	-0.08462204566202369	0.1804	2.63119528653167	-0.12467748659973459	-0.0119	2.0594970277485087	0.1907180558853473	0.0301	2.3927183741758498	-0.04819599642371641	0.129	2.7213289104066094	-0.28489110361109254	0.023	2.763240328254567	-0.2956337804253405	0.2179	2.749970745680838	-0.3552931167745352	0.1804	2.7877754550143985	-0.31866055124643716	-0.0119	1.7388093007200887	0.5960289179216832	0.0008	1.6135238310264384	0.6988176533212527	0.0655	1.6930241328044275	0.6047088097197982	0.1076	1.8949629103228778	0.7032850427634779	-0.01275	2.149560100190349	0.5691172968308887	0.0702	2.3054739567367246	0.40665107553683494	0.1076	1.6549249781268827	0.4337850913451194	-0.01275	1.8222313660614453	0.20330422388428776	0.0702	1.945677051056201	0.10462640548128238	0.1076
1959	65.32159391534391	2.108442314466932	0.2737843122515446	0.0301	2.174421749736503	0.33524314303160524	0.0301	2.3830405624734223	0.10844701727573607	0.129	2.587593887073127	-0.08856470042519908	0.023	2.6061675772447517	-0.12066062258060957	0.2179	2.6561656275048935	-0.09704791390317874	0.1804	2.609932827922017	-0.1268098999112179	-0.0119	2.0560262056318646	0.1936377729729321	0.0301	2.3862516690915516	-0.04372268739731935	0.129	2.716215382816983	-0.28293335416271603	0.023	2.7655491729112724	-0.2965145734733989	0.2179	2.7491536683466165	-0.35321130874368617	0.1804	2.7811198403802986	-0.3173613972605714	-0.0119	1.7399862396580452	0.5969504117515705	0.0008	1.6163994605685725	0.7027659348090082	0.0655	1.693155246924734	0.609562153373632	0.1076	1.8946765950305187	0.701878897890085	-0.01275	2.144146426020005	0.5704611625576013	0.0702	2.3008610152588984	0.4058493782775844	0.1076	1.658095364448924	0.43646873756023563	-0.01275	1.8204163231079984	0.207572715946629	0.0702	1.9409752605684796	0.11448203131050055	0.1076
1960	65.35493827160494	2.1048711349793865	0.27552460287458524	0.0301	2.1699842573212926	0.3366094661943689	0.0301	2.3720846692735695	0.1071721184503005	0.129	2.5704032461830475	-0.09004030810038129	0.023	2.606865584654774	-0.13636056530543028	0.2179	2.653740408679246	-0.10809097207842752	0.1804	2.595177589095467	-0.12817426646078584	-0.0119	2.0516439284698373	0.1965480596501195	0.0301	2.37649747166719	-0.03751256266378764	0.129	2.7051124505597834	-0.27663995022813337	0.023	2.7638544173503656	-0.2959324844735383	0.2179	2.7429676145306274	-0.349244213748098	0.1804	2.767418917256765	-0.31210789718568605	-0.0119	1.7415491390469386	0.5993493007460454	0.0008	1.6146335893814447	0.7120675730579333	0.0655	1.6961546078102072	0.6190987375809659	0.1076	1.8953186890971592	0.7018947717882184	-0.01275	2.138442356988387	0.569893691511629	0.0702	2.2962488037337803	0.40445592936920705	0.1076	1.6612664837600555	0.4405796398558047	-0.01275	1.8156864374665385	0.21239300141788922	0.0702	1.9353566248207617	0.12426503137351072	0.1076
1961	65.38828262786595	2.1010251868158054	0.27792519719579817	0.0301	2.1657574892726603	0.3374203147470858	0.0301	2.3664121430831666	0.10513993258215497	0.129	2.5573452810324304	-0.08717378775026216	0.023	2.6238366311450445	-0.15695627583897828	0.2179	2.658331575449505	-0.11608762450074275	0.1804	2.581834350072311	-0.12440337380500861	-0.0119	2.048473545345065	0.19930987853681767	0.0301	2.364221802939581	-0.02962376600736089	0.129	2.6849827536031987	-0.26393125571406206	0.023	2.7544191579643744	-0.29251426596162117	0.2179	2.7299327236256925	-0.3427927825656414	0.1804	2.744750885900035	-0.3000688565540425	-0.0119	1.7408247780369988	0.6057997394881999	0.0008	1.607574819582995	0.729078318149965	0.0655	1.7000866023863546	0.636114798432595	0.1076	1.8955260806324343	0.7063978103230338	-0.01275	2.1337658415504754	0.5685312221020329	0.0702	2.2910792013485697	0.4040804760887272	0.1076	1.6621834891409806	0.44707831366994377	-0.01275	1.810675595069404	0.21729617862236997	0.0702	1.9302837736588647	0.13071098042816692	0.1076
